<?xml version="1.0" encoding="utf-8"?>
<!-- Generator: Adobe Illustrator 21.0.2, SVG Export Plug-In . SVG Version: 6.00 Build 0)  -->
<svg version="1.1" id="Ebene_1" xmlns="http://www.w3.org/2000/svg" xmlns:xlink="http://www.w3.org/1999/xlink" x="0px" y="0px"
	 viewBox="0 0 20 20" style="enable-background:new 0 0 20 20;" xml:space="preserve">
<style type="text/css">
	.st0{fill:#ED5035;}
</style>
<path class="st0" d="M2,18.4c1.5,1.4,11.6-4.7,13.1-7.2c0.7-1.2-0.1-3-1.5-4.4c1.6-1,3,2.2,4.3,1.5c0.6-0.3,1-1.3,0.7-1.9
	c-0.5-1.1-2.2-1.1-3.4-1.2C16,5,18,4.1,18.1,2.9c0-0.9-1.1-2-2-1.9c-1.2,0.1-1.6,1.9-2.1,3c-0.1-0.7-0.2-2.3-1-2.9
	c-1-0.9-2.3,0-2.3,1c0,1.3,2.8,2.1,1.9,3.7C11,4.7,9.3,4,8.1,4.7C7.6,5,7.1,5.6,6.5,6.4c0.9,0.9,2.1,2.1,3.1,2.7
	c0.2,0.1,0.3,0.4,0.1,0.6C9.5,9.9,9.3,10,9.1,9.8C8.1,9.2,6.9,8.1,6,7.1C5.5,7.8,5,8.6,4.6,9.4c0.8,0.9,1.9,1.8,2.8,2.4
	c0.2,0.1,0.2,0.4,0.1,0.6c-0.1,0.2-0.4,0.3-0.6,0.1C6,11.9,5,11,4.2,10.2C2.4,13.7,1.1,17.6,2,18.4z"/>
</svg>
